<svg width="27" height="27" viewBox="0 0 27 27" fill="none" xmlns="http://www.w3.org/2000/svg">
<g opacity="0.6">
<circle cx="13.6872" cy="13.3121" r="12.8981" fill="black"/>
<circle cx="13.6872" cy="13.3121" r="12.8981" fill="black" fill-opacity="0.2"/>
</g>
<path d="M13.687 18.5669C12.9532 18.5669 12.3584 17.9721 12.3584 17.2383V9.38585C12.3584 8.65212 12.9532 8.05731 13.687 8.05731C14.4207 8.05731 15.0155 8.65212 15.0155 9.38585V17.2383C15.0155 17.9721 14.4207 18.5669 13.687 18.5669ZM9.76073 14.6406C9.027 14.6406 8.43219 14.0458 8.43219 13.3121C8.43219 12.5784 9.027 11.9836 9.76073 11.9836H17.6132C18.3469 11.9836 18.9417 12.5784 18.9417 13.3121C18.9417 14.0458 18.3469 14.6406 17.6132 14.6406H9.76073Z" fill="white"/>
<g opacity="0.6">
<circle cx="13.8483" cy="13.0259" r="12.5544" fill="black"/>
<circle cx="13.8483" cy="13.0259" r="12.5544" fill="black" fill-opacity="0.2"/>
</g>
<path d="M13.8479 18.1406C13.1337 18.1406 12.5548 17.5617 12.5548 16.8475V9.20427C12.5548 8.49009 13.1337 7.91113 13.8479 7.91113C14.5621 7.91113 15.141 8.49009 15.141 9.20427V16.8475C15.141 17.5617 14.5621 18.1406 13.8479 18.1406ZM10.0263 14.319C9.31211 14.319 8.73315 13.7401 8.73315 13.0259C8.73315 12.3117 9.31211 11.7327 10.0263 11.7327H17.6695C18.3837 11.7327 18.9626 12.3117 18.9626 13.0259C18.9626 13.7401 18.3837 14.319 17.6695 14.319H10.0263Z" fill="white"/>
<circle cx="13.98" cy="12.9799" r="12.98" fill="black"/>
<circle cx="13.98" cy="12.9799" r="12.98" fill="black" fill-opacity="0.2"/>
<path d="M13.4075 17.0103C12.8588 17.5044 12.0134 17.4601 11.5194 16.9114C11.0253 16.3626 11.0696 15.5173 11.6183 15.0232L17.4909 9.73547C18.0396 9.24139 18.885 9.2857 19.3791 9.83443C19.8732 10.3832 19.8289 11.2285 19.2801 11.7226L13.4075 17.0103Z" fill="white"/>
<path d="M13.4393 15.0597C13.9334 15.6085 13.8891 16.4538 13.3404 16.9479C12.7916 17.442 11.9463 17.3977 11.4522 16.849L9.16263 14.3062C8.66855 13.7574 8.71286 12.9121 9.26159 12.418C9.81032 11.9239 10.6557 11.9682 11.1498 12.5169L13.4393 15.0597Z" fill="white"/>
</svg>
