<svg width="13" height="13" viewBox="0 0 13 13" fill="none" xmlns="http://www.w3.org/2000/svg">
  <path d="M11.9772 11.9773C11.2093 12.7453 9.96413 12.7453 9.19616 11.9773L0.977194 3.75836C0.209219 2.99038 0.20922 1.74525 0.977195 0.977273C1.74517 0.209298 2.9903 0.209298 3.75828 0.977273L11.9772 9.19624C12.7452 9.96421 12.7452 11.2093 11.9772 11.9773ZM3.75828 11.9773C2.9903 12.7453 1.74517 12.7453 0.977196 11.9773C0.209221 11.2093 0.20922 9.96421 0.977195 9.19623L9.19616 0.977272C9.96413 0.209297 11.2093 0.209298 11.9772 0.977273C12.7452 1.74525 12.7452 2.99038 11.9772 3.75836L3.75828 11.9773Z" fill="currentColor"/>
</svg>

