<svg width="27" height="27" viewBox="0 0 27 27" fill="none" xmlns="http://www.w3.org/2000/svg">
<g opacity="0.6">
<circle cx="13.6872" cy="13.3122" r="12.8981" fill="black"/>
<circle cx="13.6872" cy="13.3122" r="12.8981" fill="black" fill-opacity="0.2"/>
</g>
<path d="M13.687 18.5669C12.9532 18.5669 12.3584 17.9721 12.3584 17.2384V9.38591C12.3584 8.65218 12.9532 8.05737 13.687 8.05737C14.4207 8.05737 15.0155 8.65218 15.0155 9.38591V17.2384C15.0155 17.9721 14.4207 18.5669 13.687 18.5669ZM9.76073 14.6407C9.027 14.6407 8.43219 14.0459 8.43219 13.3122C8.43219 12.5784 9.027 11.9836 9.76073 11.9836H17.6132C18.3469 11.9836 18.9417 12.5784 18.9417 13.3122C18.9417 14.0459 18.3469 14.6407 17.6132 14.6407H9.76073Z" fill="white"/>
</svg>
